<?xml version="1.0" encoding="UTF-8"?>
<svg xmlns="http://www.w3.org/2000/svg" version="1.1" viewBox="0 0 24 24">
  <defs>
    <style>
      .cls-1 {
        fill: #353535;
      }
    </style>
  </defs>
  <!-- Generator: Adobe Illustrator 28.7.0, SVG Export Plug-In . SVG Version: 1.2.0 Build 136)  -->
  <g>
    <g id="_레이어_1" data-name="레이어_1">
      <path class="cls-1" d="M20.3,4.5c-1.6-.7-3.2-1.2-5-1.5-.2.4-.5.9-.6,1.3-1.8-.3-3.7-.3-5.5,0-.2-.4-.4-.9-.6-1.3-1.7.3-3.4.8-5,1.5C.5,9.1-.3,13.6.1,18c2.1,1.5,4.1,2.4,6.1,3,.5-.7.9-1.3,1.3-2.1-.7-.3-1.4-.6-2-1,.2-.1.3-.3.5-.4,3.9,1.8,8.2,1.8,12.1,0,.2.1.3.3.5.4-.6.4-1.3.7-2.1,1,.4.7.8,1.4,1.3,2.1,2-.6,4-1.5,6.1-3,.5-5.1-.9-9.5-3.6-13.5ZM8,15.3c-1.2,0-2.2-1.1-2.2-2.4s1-2.4,2.2-2.4,2.2,1.1,2.2,2.4c0,1.3-1,2.4-2.2,2.4ZM16,15.3c-1.2,0-2.2-1.1-2.2-2.4s1-2.4,2.2-2.4,2.2,1.1,2.2,2.4c0,1.3-1,2.4-2.2,2.4Z"/>
    </g>
  </g>
</svg>