<?xml version="1.0" encoding="UTF-8"?>
<svg xmlns="http://www.w3.org/2000/svg" xmlns:xlink="http://www.w3.org/1999/xlink" version="1.1" viewBox="0 0 24 24">
  <defs>
    <style>
      .cls-1 {
        fill: none;
      }

      .cls-2, .cls-3 {
        fill: #5b5b5b;
      }

      .cls-3 {
        fill-rule: evenodd;
      }

      .cls-4 {
        clip-path: url(#clippath);
      }
    </style>
    <clipPath id="clippath">
      <rect class="cls-1" width="24" height="24"/>
    </clipPath>
  </defs>
  <!-- Generator: Adobe Illustrator 28.7.0, SVG Export Plug-In . SVG Version: 1.2.0 Build 136)  -->
  <g>
    <g id="_레이어_1" data-name="레이어_1">
      <g class="cls-4">
        <g>
          <path class="cls-3" d="M12,5.8c-3.4,0-6.2,2.8-6.2,6.2s2.8,6.2,6.2,6.2,6.2-2.8,6.2-6.2-2.8-6.2-6.2-6.2ZM12,16c-2.2,0-4-1.8-4-4s1.8-4,4-4,4,1.8,4,4-1.8,4-4,4Z"/>
          <path class="cls-2" d="M18.4,7c.8,0,1.4-.6,1.4-1.4s-.6-1.4-1.4-1.4-1.4.6-1.4,1.4.6,1.4,1.4,1.4Z"/>
          <path class="cls-3" d="M12,0c-3.3,0-3.7,0-4.9,0-1.3,0-2.2.3-2.9.6-.8.3-1.5.7-2.1,1.4-.7.7-1.1,1.3-1.4,2.1-.3.8-.5,1.6-.6,2.9,0,1.3,0,1.7,0,4.9s0,3.7,0,4.9c0,1.3.3,2.2.6,2.9.3.8.7,1.5,1.4,2.1.7.7,1.3,1.1,2.1,1.4.8.3,1.6.5,2.9.6,1.3,0,1.7,0,4.9,0s3.7,0,4.9,0c1.3,0,2.2-.3,2.9-.6.8-.3,1.5-.7,2.1-1.4s1.1-1.3,1.4-2.1c.3-.8.5-1.6.6-2.9,0-1.3,0-1.7,0-4.9s0-3.7,0-4.9c0-1.3-.3-2.2-.6-2.9-.3-.8-.7-1.5-1.4-2.1-.7-.7-1.3-1.1-2.1-1.4-.8-.3-1.6-.5-2.9-.6-1.3,0-1.7,0-5,0ZM12,2.2c3.2,0,3.6,0,4.8,0,1.2,0,1.8.2,2.2.4.6.2,1,.5,1.4.9.4.4.7.8.9,1.4.2.4.4,1.1.4,2.2,0,1.3,0,1.6,0,4.8s0,3.6,0,4.8c0,1.2-.2,1.8-.4,2.2-.2.6-.5,1-.9,1.4-.4.4-.8.7-1.4.9-.4.2-1.1.4-2.2.4-1.3,0-1.6,0-4.8,0s-3.6,0-4.8,0c-1.2,0-1.8-.2-2.2-.4-.6-.2-1-.5-1.4-.9-.4-.4-.7-.8-.9-1.4-.2-.4-.4-1.1-.4-2.2,0-1.3,0-1.6,0-4.8s0-3.6,0-4.8c0-1.2.2-1.8.4-2.2.2-.6.5-1,.9-1.4.4-.4.8-.7,1.4-.9.4-.2,1.1-.4,2.2-.4,1.3,0,1.6,0,4.8,0Z"/>
        </g>
      </g>
    </g>
  </g>
</svg>