<?xml version="1.0" encoding="UTF-8"?>
<svg xmlns="http://www.w3.org/2000/svg" version="1.1" viewBox="0 0 24 24">
  <defs>
    <style>
      .cls-1 {
        fill: #5b5b5b;
      }
    </style>
  </defs>
  <!-- Generator: Adobe Illustrator 28.7.0, SVG Export Plug-In . SVG Version: 1.2.0 Build 136)  -->
  <g>
    <g id="_레이어_1" data-name="레이어_1">
      <path class="cls-1" d="M17.7,11.1c-.1,0-.2,0-.3-.1-.2-3.4-2.1-5.4-5.2-5.4,0,0,0,0,0,0-1.9,0-3.4.8-4.4,2.3l1.7,1.2c.7-1.1,1.8-1.3,2.7-1.3s0,0,0,0c1,0,1.8.3,2.3.9.4.4.6,1,.7,1.8-.9-.2-1.9-.2-3-.1-3,.2-4.9,1.9-4.8,4.3,0,1.2.7,2.3,1.7,3,.9.6,2,.9,3.2.8,1.6,0,2.8-.7,3.6-1.8.6-.8,1.1-1.9,1.2-3.2.7.4,1.3,1,1.6,1.7.5,1.2.5,3.2-1.1,4.8-1.4,1.4-3.1,2-5.7,2-2.9,0-5-.9-6.4-2.7-1.3-1.7-2-4.1-2-7.2,0-3.1.7-5.5,2-7.2,1.4-1.8,3.6-2.7,6.4-2.7,2.9,0,5.1.9,6.5,2.7.7.9,1.3,2,1.6,3.3l2-.5c-.4-1.6-1.1-3-2-4.1C18.4,1.2,15.7,0,12.1,0h0c-3.5,0-6.2,1.2-8,3.5-1.6,2.1-2.4,4.9-2.5,8.5h0s0,0,0,0c0,3.6.9,6.4,2.5,8.5,1.8,2.3,4.5,3.5,8,3.5h0c3.1,0,5.3-.8,7.1-2.6,2.4-2.4,2.3-5.3,1.5-7.2-.6-1.3-1.6-2.4-3.1-3.1ZM12.3,16.2c-1.3,0-2.7-.5-2.7-1.8,0-.9.7-2,2.8-2.1.2,0,.5,0,.7,0,.8,0,1.5,0,2.2.2-.2,3.1-1.7,3.6-3,3.7Z"/>
    </g>
  </g>
</svg>